<svg xmlns="http://www.w3.org/2000/svg" viewBox="0 0 800 450" width="800" height="450">
  <defs>
    <radialGradient id="mapglow" cx="38%" cy="52%" r="40%">
      <stop offset="0%" stop-color="#1a2a1a" stop-opacity="1"/>
      <stop offset="100%" stop-color="#080c10" stop-opacity="1"/>
    </radialGradient>
    <clipPath id="mapclip">
      <rect x="0" y="0" width="480" height="450"/>
    </clipPath>
    <clipPath id="diagclip">
      <rect x="480" y="0" width="320" height="450"/>
    </clipPath>
  </defs>

  <!-- Background -->
  <rect width="800" height="450" fill="#080c10"/>

  <!-- ── LEFT PANEL: MAP ── -->
  <g clip-path="url(#mapclip)">
    <!-- Map base -->
    <rect x="0" y="0" width="480" height="450" fill="url(#mapglow)"/>

    <!-- Topo contour rings (concentric, observer-centred at 200,230) -->
    <g fill="none" stroke="rgba(70,186,180,0.07)" stroke-width="1">
      <ellipse cx="200" cy="230" rx="40"  ry="28"/>
      <ellipse cx="200" cy="230" rx="75"  ry="52"/>
      <ellipse cx="200" cy="230" rx="110" ry="76"/>
      <ellipse cx="200" cy="230" rx="148" ry="103"/>
      <ellipse cx="200" cy="230" rx="190" ry="133"/>
      <ellipse cx="200" cy="230" rx="235" ry="165"/>
      <ellipse cx="200" cy="230" rx="285" ry="200"/>
    </g>

    <!-- Viewshed fill wedge (roughly NW-NE visible sector) -->
    <path d="M200,230
             L 62,80 Q 90,60 120,55 L 160,65 Q 190,50 220,48
             L 260,58 Q 300,55 330,70 L 370,95 Q 400,120 390,145
             L 350,130 Q 310,110 270,115 L 230,108 Q 200,105 170,112
             L 130,125 Q 100,145 90,170 Z"
          fill="rgba(70,186,180,0.12)" stroke="none"/>

    <!-- Viewshed boundary edge -->
    <path d="M200,230
             L 62,80 Q 90,60 120,55 L 160,65 Q 190,50 220,48
             L 260,58 Q 300,55 330,70 L 370,95 Q 400,120 390,145
             L 350,130 Q 310,110 270,115 L 230,108 Q 200,105 170,112
             L 130,125 Q 100,145 90,170 Z"
          fill="none" stroke="rgba(70,186,180,0.22)" stroke-width="1"/>

    <!-- Observer dot -->
    <circle cx="200" cy="230" r="6" fill="#46BAB4" opacity="0.9"/>
    <circle cx="200" cy="230" r="12" fill="none" stroke="#46BAB4" stroke-width="1.5" opacity="0.5"/>
    <circle cx="200" cy="230" r="20" fill="none" stroke="#46BAB4" stroke-width="0.8" opacity="0.25"/>

    <!-- Terrain ridge lines (background mountains) -->
    <polyline points="0,290 30,270 55,280 80,255 110,248 140,260 165,242 190,238 215,245 240,232 270,240 300,228 330,235 360,222 400,230 440,218 480,225"
              fill="none" stroke="rgba(70,186,180,0.18)" stroke-width="1.5"/>
    <polyline points="0,310 40,295 80,300 120,285 160,278 200,282 240,270 280,275 320,262 360,268 400,258 440,265 480,255"
              fill="none" stroke="rgba(70,186,180,0.10)" stroke-width="1"/>

    <!-- Peak labels -->
    <circle cx="270" cy="105" r="3" fill="#ffd250" opacity="0.8"/>
    <text x="275" y="99" font-family="monospace" font-size="9" fill="#ffd250" opacity="0.75">Mt Index</text>
    <text x="275" y="109" font-family="monospace" font-size="8" fill="rgba(180,160,80,0.6)">2282m</text>

    <circle cx="148" cy="72" r="3" fill="#ffd250" opacity="0.8"/>
    <text x="153" y="67" font-family="monospace" font-size="9" fill="#ffd250" opacity="0.75">Stevens</text>

    <!-- VIEWSHED label -->
    <text x="16" y="28" font-family="monospace" font-size="13" font-weight="bold"
          fill="#46BAB4" letter-spacing="0.1em" opacity="0.9">VIEWSHED</text>
    <text x="16" y="42" font-family="monospace" font-size="9" fill="#556070" letter-spacing="0.05em">360° TERRAIN VISIBILITY</text>

    <!-- Radius ring (30 km boundary) -->
    <ellipse cx="200" cy="230" rx="190" ry="133"
             fill="none" stroke="rgba(70,186,180,0.15)" stroke-width="1" stroke-dasharray="4 4"/>
  </g>

  <!-- Divider -->
  <line x1="480" y1="0" x2="480" y2="450" stroke="rgba(255,255,255,0.07)" stroke-width="1"/>

  <!-- ── RIGHT PANEL: POLAR DIAGRAM ── -->
  <g clip-path="url(#diagclip)">
    <rect x="480" y="0" width="320" height="450" fill="#080c10"/>

    <!-- Y-axis grid lines -->
    <g stroke="rgba(255,255,255,0.06)" stroke-width="1">
      <line x1="510" y1="60"  x2="790" y2="60"/>
      <line x1="510" y1="120" x2="790" y2="120"/>
      <line x1="510" y1="180" x2="790" y2="180"/>
      <line x1="510" y1="240" x2="790" y2="240"/>
      <line x1="510" y1="300" x2="790" y2="300"/>
      <line x1="510" y1="360" x2="790" y2="360"/>
    </g>

    <!-- Zero line (dashed) -->
    <line x1="510" y1="240" x2="790" y2="240"
          stroke="rgba(255,255,255,0.18)" stroke-width="1" stroke-dasharray="4 4"/>

    <!-- Azimuth grid lines -->
    <g stroke="rgba(255,255,255,0.06)" stroke-width="1">
      <line x1="575" y1="40" x2="575" y2="410"/>
      <line x1="650" y1="40" x2="650" y2="410"/>
      <line x1="725" y1="40" x2="725" y2="410"/>
    </g>

    <!-- Y-axis labels -->
    <g font-family="monospace" font-size="9" fill="#556070" text-anchor="end">
      <text x="508" y="63">5°</text>
      <text x="508" y="123">3°</text>
      <text x="508" y="183">1°</text>
      <text x="508" y="243">0°</text>
      <text x="508" y="303">-1°</text>
      <text x="508" y="363">-3°</text>
    </g>

    <!-- Cardinal labels -->
    <g font-family="monospace" font-size="10" fill="#556070" text-anchor="middle">
      <text x="510" y="425">N</text>
      <text x="575" y="425">E</text>
      <text x="650" y="425">S</text>
      <text x="725" y="425">W</text>
      <text x="790" y="425">N</text>
    </g>

    <!-- Sample dots (terrain scatter) -->
    <!-- Visible samples in teal -->
    <g fill="rgba(70,186,180,0.45)">
      <rect x="511" y="285" width="2" height="2"/>
      <rect x="515" y="278" width="2" height="2"/>
      <rect x="519" y="270" width="2" height="2"/>
      <rect x="523" y="262" width="2" height="2"/>
      <rect x="527" y="255" width="2" height="2"/>
      <rect x="531" y="248" width="2" height="2"/>
      <rect x="535" y="242" width="2" height="2"/>
      <rect x="539" y="236" width="2" height="2"/>
      <rect x="543" y="228" width="2" height="2"/>
      <rect x="547" y="220" width="2" height="2"/>
      <rect x="551" y="210" width="2" height="2"/>
      <rect x="555" y="198" width="2" height="2"/>
      <rect x="559" y="185" width="2" height="2"/>
      <rect x="563" y="172" width="2" height="2"/>
      <rect x="567" y="158" width="2" height="2"/>
      <rect x="571" y="148" width="2" height="2"/>
      <rect x="575" y="142" width="2" height="2"/>
      <rect x="579" y="150" width="2" height="2"/>
      <rect x="583" y="162" width="2" height="2"/>
      <rect x="587" y="178" width="2" height="2"/>
      <rect x="591" y="195" width="2" height="2"/>
      <rect x="595" y="210" width="2" height="2"/>
      <rect x="599" y="222" width="2" height="2"/>
      <rect x="603" y="232" width="2" height="2"/>
      <rect x="607" y="238" width="2" height="2"/>
      <rect x="611" y="242" width="2" height="2"/>
      <rect x="615" y="240" width="2" height="2"/>
      <rect x="619" y="235" width="2" height="2"/>
      <rect x="623" y="228" width="2" height="2"/>
      <rect x="627" y="218" width="2" height="2"/>
      <rect x="631" y="205" width="2" height="2"/>
      <rect x="635" y="190" width="2" height="2"/>
      <rect x="639" y="175" width="2" height="2"/>
      <rect x="643" y="162" width="2" height="2"/>
      <rect x="647" y="155" width="2" height="2"/>
      <rect x="651" y="158" width="2" height="2"/>
      <rect x="655" y="168" width="2" height="2"/>
      <rect x="659" y="182" width="2" height="2"/>
      <rect x="663" y="198" width="2" height="2"/>
      <rect x="667" y="212" width="2" height="2"/>
      <rect x="671" y="222" width="2" height="2"/>
      <rect x="675" y="228" width="2" height="2"/>
      <rect x="679" y="232" width="2" height="2"/>
      <rect x="683" y="236" width="2" height="2"/>
      <rect x="687" y="238" width="2" height="2"/>
      <rect x="691" y="242" width="2" height="2"/>
      <rect x="695" y="246" width="2" height="2"/>
      <rect x="699" y="250" width="2" height="2"/>
      <rect x="703" y="255" width="2" height="2"/>
      <rect x="707" y="260" width="2" height="2"/>
      <rect x="711" y="265" width="2" height="2"/>
      <rect x="715" y="270" width="2" height="2"/>
      <rect x="719" y="275" width="2" height="2"/>
      <rect x="723" y="280" width="2" height="2"/>
      <rect x="727" y="276" width="2" height="2"/>
      <rect x="731" y="270" width="2" height="2"/>
      <rect x="735" y="262" width="2" height="2"/>
      <rect x="739" y="252" width="2" height="2"/>
      <rect x="743" y="240" width="2" height="2"/>
      <rect x="747" y="228" width="2" height="2"/>
      <rect x="751" y="218" width="2" height="2"/>
      <rect x="755" y="210" width="2" height="2"/>
      <rect x="759" y="205" width="2" height="2"/>
      <rect x="763" y="202" width="2" height="2"/>
      <rect x="767" y="205" width="2" height="2"/>
      <rect x="771" y="212" width="2" height="2"/>
      <rect x="775" y="222" width="2" height="2"/>
      <rect x="779" y="232" width="2" height="2"/>
      <rect x="783" y="242" width="2" height="2"/>
      <rect x="787" y="252" width="2" height="2"/>
    </g>

    <!-- Occluded samples (darker) -->
    <g fill="rgba(40,80,80,0.35)">
      <rect x="555" y="310" width="2" height="2"/>
      <rect x="560" y="318" width="2" height="2"/>
      <rect x="565" y="325" width="2" height="2"/>
      <rect x="570" y="330" width="2" height="2"/>
      <rect x="580" y="295" width="2" height="2"/>
      <rect x="585" y="305" width="2" height="2"/>
      <rect x="590" y="315" width="2" height="2"/>
      <rect x="620" y="290" width="2" height="2"/>
      <rect x="625" y="300" width="2" height="2"/>
      <rect x="630" y="310" width="2" height="2"/>
      <rect x="655" y="285" width="2" height="2"/>
      <rect x="660" y="295" width="2" height="2"/>
      <rect x="665" y="305" width="2" height="2"/>
    </g>

    <!-- Island points (bright cyan) -->
    <g fill="rgba(70,230,220,0.8)">
      <rect x="558" y="155" width="2" height="2"/>
      <rect x="563" y="148" width="2" height="2"/>
      <rect x="644" y="148" width="2" height="2"/>
      <rect x="648" y="142" width="2" height="2"/>
      <rect x="762" y="196" width="2" height="2"/>
      <rect x="766" y="190" width="2" height="2"/>
    </g>

    <!-- Skyline polyline -->
    <polyline
      points="510,285 515,278 519,270 523,262 527,255 531,248 535,242 539,236 543,228 547,220 551,210 555,198 559,185 563,172 567,158 571,148 575,142 579,150 583,162 587,178 591,195 595,210 599,222 603,232 607,238 611,242 615,240 619,235 623,228 627,218 631,205 635,190 639,175 643,162 647,155 651,158 655,168 659,182 663,198 667,212 671,222 675,228 679,232 683,236 687,238 691,242 695,246 699,250 703,255 707,260 711,265 715,270 719,275 723,280 727,276 731,270 735,262 739,252 743,240 747,228 751,218 755,210 759,205 763,202 767,205 771,212 775,222 779,232 783,242 787,252 790,256"
      fill="none" stroke="#46BAB4" stroke-width="1.8" stroke-linejoin="round"/>

    <!-- Peak marker -->
    <circle cx="575" cy="142" r="3" fill="#ffd250" opacity="0.9"/>
    <line x1="575" y1="139" x2="575" y2="128" stroke="#ffd250" stroke-width="1" stroke-dasharray="2 2" opacity="0.7"/>
    <text x="575" y="124" font-family="monospace" font-size="8" font-weight="bold"
          fill="#ffd250" text-anchor="middle" opacity="0.85">Mt Index</text>

    <circle cx="647" cy="155" r="3" fill="#ffd250" opacity="0.9"/>
    <line x1="647" y1="152" x2="647" y2="141" stroke="#ffd250" stroke-width="1" stroke-dasharray="2 2" opacity="0.7"/>
    <text x="647" y="137" font-family="monospace" font-size="8" font-weight="bold"
          fill="#ffd250" text-anchor="middle" opacity="0.85">Baring</text>

    <!-- Border -->
    <rect x="510" y="44" width="278" height="372" fill="none" stroke="rgba(255,255,255,0.08)" stroke-width="1"/>

    <!-- Panel label -->
    <text x="650" y="28" font-family="monospace" font-size="9" fill="#556070"
          text-anchor="middle" letter-spacing="0.07em">ELEVATION PROFILE · 360°</text>
  </g>
</svg>
